<mxfile host="app.diagrams.net" agent="Mozilla/5.0 (Macintosh; Intel Mac OS X 10_15_7) AppleWebKit/537.36 (KHTML, like Gecko) Chrome/133.0.0.0 Safari/537.36" version="26.1.0">
  <diagram name="第 1 页" id="AI3fLJ1SrW26-yVC4oN6">
    <mxGraphModel dx="237" dy="973" grid="0" gridSize="10" guides="1" tooltips="1" connect="1" arrows="1" fold="1" page="0" pageScale="1" pageWidth="1200" pageHeight="1920" math="1" shadow="0">
      <root>
        <mxCell id="0" />
        <mxCell id="1" parent="0" />
        <mxCell id="QqardKdHSsVyAJ3v5-Pz-20" value="" style="group" vertex="1" connectable="0" parent="1">
          <mxGeometry x="1340.25" y="-164" width="47.5" height="135" as="geometry" />
        </mxCell>
        <mxCell id="QqardKdHSsVyAJ3v5-Pz-21" value="" style="rounded=0;whiteSpace=wrap;html=1;" vertex="1" parent="QqardKdHSsVyAJ3v5-Pz-20">
          <mxGeometry x="5" width="36" height="135" as="geometry" />
        </mxCell>
        <mxCell id="QqardKdHSsVyAJ3v5-Pz-22" value="`b_1`" style="text;html=1;align=center;verticalAlign=middle;resizable=0;points=[];autosize=1;strokeColor=none;fillColor=none;" vertex="1" parent="QqardKdHSsVyAJ3v5-Pz-20">
          <mxGeometry width="46" height="26" as="geometry" />
        </mxCell>
        <mxCell id="QqardKdHSsVyAJ3v5-Pz-23" value="`b_2`" style="text;html=1;align=center;verticalAlign=middle;resizable=0;points=[];autosize=1;strokeColor=none;fillColor=none;" vertex="1" parent="QqardKdHSsVyAJ3v5-Pz-20">
          <mxGeometry x="0.75" y="26" width="46" height="26" as="geometry" />
        </mxCell>
        <mxCell id="QqardKdHSsVyAJ3v5-Pz-24" value="`b_3`" style="text;html=1;align=center;verticalAlign=middle;resizable=0;points=[];autosize=1;strokeColor=none;fillColor=none;" vertex="1" parent="QqardKdHSsVyAJ3v5-Pz-20">
          <mxGeometry x="0.75" y="57" width="46" height="26" as="geometry" />
        </mxCell>
        <mxCell id="QqardKdHSsVyAJ3v5-Pz-25" value="" style="endArrow=classic;html=1;rounded=0;" edge="1" parent="QqardKdHSsVyAJ3v5-Pz-20">
          <mxGeometry width="50" height="50" relative="1" as="geometry">
            <mxPoint x="16" y="34" as="sourcePoint" />
            <mxPoint x="16" y="16" as="targetPoint" />
          </mxGeometry>
        </mxCell>
        <mxCell id="QqardKdHSsVyAJ3v5-Pz-26" value="" style="endArrow=classic;html=1;rounded=0;" edge="1" parent="QqardKdHSsVyAJ3v5-Pz-20">
          <mxGeometry width="50" height="50" relative="1" as="geometry">
            <mxPoint x="17" y="64" as="sourcePoint" />
            <mxPoint x="17" y="46" as="targetPoint" />
          </mxGeometry>
        </mxCell>
        <mxCell id="QqardKdHSsVyAJ3v5-Pz-27" value="" style="endArrow=classic;html=1;rounded=0;" edge="1" parent="QqardKdHSsVyAJ3v5-Pz-20">
          <mxGeometry width="50" height="50" relative="1" as="geometry">
            <mxPoint x="14.5" y="12.93" as="sourcePoint" />
            <mxPoint x="-20" y="12.93" as="targetPoint" />
          </mxGeometry>
        </mxCell>
        <mxCell id="QqardKdHSsVyAJ3v5-Pz-28" value="" style="group" vertex="1" connectable="0" parent="1">
          <mxGeometry x="1391.25" y="-164" width="49" height="135" as="geometry" />
        </mxCell>
        <mxCell id="QqardKdHSsVyAJ3v5-Pz-29" value="" style="rounded=0;whiteSpace=wrap;html=1;" vertex="1" parent="QqardKdHSsVyAJ3v5-Pz-28">
          <mxGeometry x="5" width="36" height="135" as="geometry" />
        </mxCell>
        <mxCell id="QqardKdHSsVyAJ3v5-Pz-30" value="`A[i]`" style="text;html=1;align=center;verticalAlign=middle;resizable=0;points=[];autosize=1;strokeColor=none;fillColor=none;" vertex="1" parent="1">
          <mxGeometry x="1290.75" y="-189" width="43" height="26" as="geometry" />
        </mxCell>
        <mxCell id="QqardKdHSsVyAJ3v5-Pz-31" value="`B[i]`" style="text;html=1;align=center;verticalAlign=middle;resizable=0;points=[];autosize=1;strokeColor=none;fillColor=none;" vertex="1" parent="1">
          <mxGeometry x="1342" y="-189" width="43" height="26" as="geometry" />
        </mxCell>
        <mxCell id="QqardKdHSsVyAJ3v5-Pz-32" value="`C`" style="text;html=1;align=center;verticalAlign=middle;resizable=0;points=[];autosize=1;strokeColor=none;fillColor=none;" vertex="1" parent="1">
          <mxGeometry x="1397.5" y="-189" width="35" height="26" as="geometry" />
        </mxCell>
        <mxCell id="QqardKdHSsVyAJ3v5-Pz-33" value="" style="rounded=0;whiteSpace=wrap;html=1;fillColor=none;" vertex="1" parent="1">
          <mxGeometry x="1293.75" y="-164" width="36" height="135" as="geometry" />
        </mxCell>
        <mxCell id="QqardKdHSsVyAJ3v5-Pz-34" value="`a_1`" style="text;html=1;align=center;verticalAlign=middle;resizable=0;points=[];autosize=1;strokeColor=none;fillColor=none;" vertex="1" parent="1">
          <mxGeometry x="1289.25" y="-164" width="46" height="26" as="geometry" />
        </mxCell>
        <mxCell id="QqardKdHSsVyAJ3v5-Pz-35" value="" style="rounded=0;whiteSpace=wrap;html=1;strokeColor=none;" vertex="1" parent="1">
          <mxGeometry x="1289.25" y="-84" width="148.5" height="60" as="geometry" />
        </mxCell>
        <mxCell id="QqardKdHSsVyAJ3v5-Pz-36" value="" style="endArrow=classic;html=1;rounded=0;" edge="1" parent="1">
          <mxGeometry width="50" height="50" relative="1" as="geometry">
            <mxPoint x="1350.75" y="-125" as="sourcePoint" />
            <mxPoint x="1319.75" y="-142" as="targetPoint" />
          </mxGeometry>
        </mxCell>
        <mxCell id="QqardKdHSsVyAJ3v5-Pz-37" value="`a_2`" style="text;html=1;align=center;verticalAlign=middle;resizable=0;points=[];autosize=1;strokeColor=none;fillColor=none;" vertex="1" parent="1">
          <mxGeometry x="1289.25" y="-109.5" width="46" height="26" as="geometry" />
        </mxCell>
        <mxCell id="QqardKdHSsVyAJ3v5-Pz-38" value="" style="endArrow=classic;html=1;rounded=0;" edge="1" parent="1">
          <mxGeometry width="50" height="50" relative="1" as="geometry">
            <mxPoint x="1355.25" y="-94.05" as="sourcePoint" />
            <mxPoint x="1320.75" y="-94.05" as="targetPoint" />
          </mxGeometry>
        </mxCell>
        <mxCell id="QqardKdHSsVyAJ3v5-Pz-39" value="" style="endArrow=classic;html=1;rounded=0;" edge="1" parent="1">
          <mxGeometry width="50" height="50" relative="1" as="geometry">
            <mxPoint x="1354.75" y="-96" as="sourcePoint" />
            <mxPoint x="1317.75" y="-135" as="targetPoint" />
          </mxGeometry>
        </mxCell>
        <mxCell id="QqardKdHSsVyAJ3v5-Pz-40" value="" style="group" vertex="1" connectable="0" parent="1">
          <mxGeometry x="1342" y="-55" width="47.5" height="135" as="geometry" />
        </mxCell>
        <mxCell id="QqardKdHSsVyAJ3v5-Pz-41" value="" style="rounded=0;whiteSpace=wrap;html=1;" vertex="1" parent="QqardKdHSsVyAJ3v5-Pz-40">
          <mxGeometry x="5" width="36" height="135" as="geometry" />
        </mxCell>
        <mxCell id="QqardKdHSsVyAJ3v5-Pz-42" value="`b_1`" style="text;html=1;align=center;verticalAlign=middle;resizable=0;points=[];autosize=1;strokeColor=none;fillColor=none;" vertex="1" parent="QqardKdHSsVyAJ3v5-Pz-40">
          <mxGeometry width="46" height="26" as="geometry" />
        </mxCell>
        <mxCell id="QqardKdHSsVyAJ3v5-Pz-43" value="`b_2`" style="text;html=1;align=center;verticalAlign=middle;resizable=0;points=[];autosize=1;strokeColor=none;fillColor=none;" vertex="1" parent="QqardKdHSsVyAJ3v5-Pz-40">
          <mxGeometry x="0.75" y="26" width="46" height="26" as="geometry" />
        </mxCell>
        <mxCell id="QqardKdHSsVyAJ3v5-Pz-44" value="`b_3`" style="text;html=1;align=center;verticalAlign=middle;resizable=0;points=[];autosize=1;strokeColor=none;fillColor=none;" vertex="1" parent="QqardKdHSsVyAJ3v5-Pz-40">
          <mxGeometry x="0.75" y="57" width="46" height="26" as="geometry" />
        </mxCell>
        <mxCell id="QqardKdHSsVyAJ3v5-Pz-45" value="" style="endArrow=classic;html=1;rounded=0;" edge="1" parent="QqardKdHSsVyAJ3v5-Pz-40">
          <mxGeometry width="50" height="50" relative="1" as="geometry">
            <mxPoint x="16" y="34" as="sourcePoint" />
            <mxPoint x="16" y="16" as="targetPoint" />
          </mxGeometry>
        </mxCell>
        <mxCell id="QqardKdHSsVyAJ3v5-Pz-46" value="" style="endArrow=classic;html=1;rounded=0;" edge="1" parent="QqardKdHSsVyAJ3v5-Pz-40">
          <mxGeometry width="50" height="50" relative="1" as="geometry">
            <mxPoint x="17" y="64" as="sourcePoint" />
            <mxPoint x="17" y="46" as="targetPoint" />
          </mxGeometry>
        </mxCell>
        <mxCell id="QqardKdHSsVyAJ3v5-Pz-47" value="" style="endArrow=classic;html=1;rounded=0;" edge="1" parent="QqardKdHSsVyAJ3v5-Pz-40">
          <mxGeometry width="50" height="50" relative="1" as="geometry">
            <mxPoint x="14.5" y="12.93" as="sourcePoint" />
            <mxPoint x="-20" y="12.93" as="targetPoint" />
          </mxGeometry>
        </mxCell>
        <mxCell id="QqardKdHSsVyAJ3v5-Pz-48" value="" style="group" vertex="1" connectable="0" parent="1">
          <mxGeometry x="1393" y="-55" width="47.5" height="135" as="geometry" />
        </mxCell>
        <mxCell id="QqardKdHSsVyAJ3v5-Pz-49" value="" style="rounded=0;whiteSpace=wrap;html=1;" vertex="1" parent="QqardKdHSsVyAJ3v5-Pz-48">
          <mxGeometry x="5" width="36" height="135" as="geometry" />
        </mxCell>
        <mxCell id="QqardKdHSsVyAJ3v5-Pz-50" value="`c_1`" style="text;html=1;align=center;verticalAlign=middle;resizable=0;points=[];autosize=1;strokeColor=none;fillColor=none;" vertex="1" parent="QqardKdHSsVyAJ3v5-Pz-48">
          <mxGeometry x="1" width="45" height="26" as="geometry" />
        </mxCell>
        <mxCell id="QqardKdHSsVyAJ3v5-Pz-51" value="" style="endArrow=classic;html=1;rounded=0;" edge="1" parent="QqardKdHSsVyAJ3v5-Pz-48">
          <mxGeometry width="50" height="50" relative="1" as="geometry">
            <mxPoint x="14.5" y="12.93" as="sourcePoint" />
            <mxPoint x="-20" y="12.93" as="targetPoint" />
          </mxGeometry>
        </mxCell>
        <mxCell id="QqardKdHSsVyAJ3v5-Pz-52" value="`A[i]`" style="text;html=1;align=center;verticalAlign=middle;resizable=0;points=[];autosize=1;strokeColor=none;fillColor=none;" vertex="1" parent="1">
          <mxGeometry x="1292.5" y="-80" width="43" height="26" as="geometry" />
        </mxCell>
        <mxCell id="QqardKdHSsVyAJ3v5-Pz-53" value="`B[i]`" style="text;html=1;align=center;verticalAlign=middle;resizable=0;points=[];autosize=1;strokeColor=none;fillColor=none;" vertex="1" parent="1">
          <mxGeometry x="1343.75" y="-80" width="43" height="26" as="geometry" />
        </mxCell>
        <mxCell id="QqardKdHSsVyAJ3v5-Pz-54" value="`C`" style="text;html=1;align=center;verticalAlign=middle;resizable=0;points=[];autosize=1;strokeColor=none;fillColor=none;" vertex="1" parent="1">
          <mxGeometry x="1399.25" y="-80" width="35" height="26" as="geometry" />
        </mxCell>
        <mxCell id="QqardKdHSsVyAJ3v5-Pz-55" value="" style="rounded=0;whiteSpace=wrap;html=1;fillColor=none;" vertex="1" parent="1">
          <mxGeometry x="1295.5" y="-55" width="36" height="135" as="geometry" />
        </mxCell>
        <mxCell id="QqardKdHSsVyAJ3v5-Pz-56" value="`a_1`" style="text;html=1;align=center;verticalAlign=middle;resizable=0;points=[];autosize=1;strokeColor=none;fillColor=none;" vertex="1" parent="1">
          <mxGeometry x="1291" y="-55" width="46" height="26" as="geometry" />
        </mxCell>
        <mxCell id="QqardKdHSsVyAJ3v5-Pz-57" value="" style="rounded=0;whiteSpace=wrap;html=1;strokeColor=none;" vertex="1" parent="1">
          <mxGeometry x="1291" y="25" width="148.5" height="60" as="geometry" />
        </mxCell>
        <mxCell id="QqardKdHSsVyAJ3v5-Pz-58" value="" style="endArrow=classic;html=1;rounded=0;" edge="1" parent="1">
          <mxGeometry width="50" height="50" relative="1" as="geometry">
            <mxPoint x="1407.5" y="-34" as="sourcePoint" />
            <mxPoint x="1376.5" y="-15" as="targetPoint" />
          </mxGeometry>
        </mxCell>
        <mxCell id="QqardKdHSsVyAJ3v5-Pz-59" value="" style="endArrow=classic;html=1;rounded=0;" edge="1" parent="1">
          <mxGeometry width="50" height="50" relative="1" as="geometry">
            <mxPoint x="1412.5" y="-29" as="sourcePoint" />
            <mxPoint x="1373.5" y="14" as="targetPoint" />
          </mxGeometry>
        </mxCell>
        <mxCell id="QqardKdHSsVyAJ3v5-Pz-60" value="`a_2`" style="text;html=1;align=center;verticalAlign=middle;resizable=0;points=[];autosize=1;strokeColor=none;fillColor=none;" vertex="1" parent="1">
          <mxGeometry x="1291" y="-0.5" width="46" height="26" as="geometry" />
        </mxCell>
        <mxCell id="QqardKdHSsVyAJ3v5-Pz-61" value="" style="endArrow=classic;html=1;rounded=0;" edge="1" parent="1">
          <mxGeometry width="50" height="50" relative="1" as="geometry">
            <mxPoint x="1357" y="14.949999999999989" as="sourcePoint" />
            <mxPoint x="1322.5" y="14.949999999999989" as="targetPoint" />
          </mxGeometry>
        </mxCell>
        <mxCell id="QqardKdHSsVyAJ3v5-Pz-62" value="" style="group" vertex="1" connectable="0" parent="1">
          <mxGeometry x="1570" y="-163" width="47.5" height="135" as="geometry" />
        </mxCell>
        <mxCell id="QqardKdHSsVyAJ3v5-Pz-63" value="" style="rounded=0;whiteSpace=wrap;html=1;" vertex="1" parent="QqardKdHSsVyAJ3v5-Pz-62">
          <mxGeometry x="5" width="36" height="135" as="geometry" />
        </mxCell>
        <mxCell id="QqardKdHSsVyAJ3v5-Pz-64" value="`b_1`" style="text;html=1;align=center;verticalAlign=middle;resizable=0;points=[];autosize=1;strokeColor=none;fillColor=none;" vertex="1" parent="QqardKdHSsVyAJ3v5-Pz-62">
          <mxGeometry width="46" height="26" as="geometry" />
        </mxCell>
        <mxCell id="QqardKdHSsVyAJ3v5-Pz-65" value="`b_2`" style="text;html=1;align=center;verticalAlign=middle;resizable=0;points=[];autosize=1;strokeColor=none;fillColor=none;" vertex="1" parent="QqardKdHSsVyAJ3v5-Pz-62">
          <mxGeometry x="0.75" y="26" width="46" height="26" as="geometry" />
        </mxCell>
        <mxCell id="QqardKdHSsVyAJ3v5-Pz-66" value="`b_3`" style="text;html=1;align=center;verticalAlign=middle;resizable=0;points=[];autosize=1;strokeColor=none;fillColor=none;" vertex="1" parent="QqardKdHSsVyAJ3v5-Pz-62">
          <mxGeometry x="0.75" y="57" width="46" height="26" as="geometry" />
        </mxCell>
        <mxCell id="QqardKdHSsVyAJ3v5-Pz-67" value="" style="endArrow=classic;html=1;rounded=0;" edge="1" parent="QqardKdHSsVyAJ3v5-Pz-62">
          <mxGeometry width="50" height="50" relative="1" as="geometry">
            <mxPoint x="16" y="34" as="sourcePoint" />
            <mxPoint x="16" y="16" as="targetPoint" />
          </mxGeometry>
        </mxCell>
        <mxCell id="QqardKdHSsVyAJ3v5-Pz-68" value="" style="endArrow=classic;html=1;rounded=0;" edge="1" parent="QqardKdHSsVyAJ3v5-Pz-62">
          <mxGeometry width="50" height="50" relative="1" as="geometry">
            <mxPoint x="17" y="64" as="sourcePoint" />
            <mxPoint x="17" y="46" as="targetPoint" />
          </mxGeometry>
        </mxCell>
        <mxCell id="QqardKdHSsVyAJ3v5-Pz-69" value="" style="endArrow=classic;html=1;rounded=0;" edge="1" parent="QqardKdHSsVyAJ3v5-Pz-62">
          <mxGeometry width="50" height="50" relative="1" as="geometry">
            <mxPoint x="14.5" y="12.93" as="sourcePoint" />
            <mxPoint x="-20" y="12.93" as="targetPoint" />
          </mxGeometry>
        </mxCell>
        <mxCell id="QqardKdHSsVyAJ3v5-Pz-70" value="" style="group" vertex="1" connectable="0" parent="1">
          <mxGeometry x="1621" y="-163" width="49" height="135" as="geometry" />
        </mxCell>
        <mxCell id="QqardKdHSsVyAJ3v5-Pz-71" value="" style="rounded=0;whiteSpace=wrap;html=1;" vertex="1" parent="QqardKdHSsVyAJ3v5-Pz-70">
          <mxGeometry x="5" width="36" height="135" as="geometry" />
        </mxCell>
        <mxCell id="QqardKdHSsVyAJ3v5-Pz-72" value="`A[i]`" style="text;html=1;align=center;verticalAlign=middle;resizable=0;points=[];autosize=1;strokeColor=none;fillColor=none;" vertex="1" parent="1">
          <mxGeometry x="1520.5" y="-188" width="43" height="26" as="geometry" />
        </mxCell>
        <mxCell id="QqardKdHSsVyAJ3v5-Pz-73" value="`B[i]`" style="text;html=1;align=center;verticalAlign=middle;resizable=0;points=[];autosize=1;strokeColor=none;fillColor=none;" vertex="1" parent="1">
          <mxGeometry x="1571.75" y="-188" width="43" height="26" as="geometry" />
        </mxCell>
        <mxCell id="QqardKdHSsVyAJ3v5-Pz-74" value="`C`" style="text;html=1;align=center;verticalAlign=middle;resizable=0;points=[];autosize=1;strokeColor=none;fillColor=none;" vertex="1" parent="1">
          <mxGeometry x="1627.25" y="-188" width="35" height="26" as="geometry" />
        </mxCell>
        <mxCell id="QqardKdHSsVyAJ3v5-Pz-75" value="" style="rounded=0;whiteSpace=wrap;html=1;fillColor=none;" vertex="1" parent="1">
          <mxGeometry x="1523.5" y="-163" width="36" height="135" as="geometry" />
        </mxCell>
        <mxCell id="QqardKdHSsVyAJ3v5-Pz-76" value="`a_1`" style="text;html=1;align=center;verticalAlign=middle;resizable=0;points=[];autosize=1;strokeColor=none;fillColor=none;" vertex="1" parent="1">
          <mxGeometry x="1519" y="-163" width="46" height="26" as="geometry" />
        </mxCell>
        <mxCell id="QqardKdHSsVyAJ3v5-Pz-77" value="" style="rounded=0;whiteSpace=wrap;html=1;strokeColor=none;" vertex="1" parent="1">
          <mxGeometry x="1519" y="-83" width="148.5" height="60" as="geometry" />
        </mxCell>
        <mxCell id="QqardKdHSsVyAJ3v5-Pz-78" value="`a_2`" style="text;html=1;align=center;verticalAlign=middle;resizable=0;points=[];autosize=1;strokeColor=none;fillColor=none;" vertex="1" parent="1">
          <mxGeometry x="1519" y="-108.5" width="46" height="26" as="geometry" />
        </mxCell>
        <mxCell id="QqardKdHSsVyAJ3v5-Pz-79" value="" style="endArrow=classic;html=1;rounded=0;" edge="1" parent="1">
          <mxGeometry width="50" height="50" relative="1" as="geometry">
            <mxPoint x="1585" y="-93.05" as="sourcePoint" />
            <mxPoint x="1550.5" y="-93.05" as="targetPoint" />
          </mxGeometry>
        </mxCell>
        <mxCell id="QqardKdHSsVyAJ3v5-Pz-80" value="" style="endArrow=classic;html=1;rounded=0;" edge="1" parent="1">
          <mxGeometry width="50" height="50" relative="1" as="geometry">
            <mxPoint x="1313.79" y="8" as="sourcePoint" />
            <mxPoint x="1313.79" y="-33" as="targetPoint" />
          </mxGeometry>
        </mxCell>
        <mxCell id="QqardKdHSsVyAJ3v5-Pz-81" value="" style="endArrow=classic;html=1;rounded=0;" edge="1" parent="1">
          <mxGeometry width="50" height="50" relative="1" as="geometry">
            <mxPoint x="1543.29" y="-99" as="sourcePoint" />
            <mxPoint x="1543.29" y="-140" as="targetPoint" />
          </mxGeometry>
        </mxCell>
        <mxCell id="QqardKdHSsVyAJ3v5-Pz-82" value="" style="endArrow=classic;html=1;rounded=0;" edge="1" parent="1">
          <mxGeometry width="50" height="50" relative="1" as="geometry">
            <mxPoint x="1314.04" y="-100" as="sourcePoint" />
            <mxPoint x="1314.04" y="-141" as="targetPoint" />
          </mxGeometry>
        </mxCell>
        <mxCell id="QqardKdHSsVyAJ3v5-Pz-84" value="" style="rounded=0;whiteSpace=wrap;html=1;" vertex="1" parent="1">
          <mxGeometry x="1175.75" y="-147.5" width="36" height="135" as="geometry" />
        </mxCell>
        <mxCell id="QqardKdHSsVyAJ3v5-Pz-85" value="" style="rounded=0;whiteSpace=wrap;html=1;fillColor=none;" vertex="1" parent="1">
          <mxGeometry x="1073.25" y="-147.5" width="36" height="135" as="geometry" />
        </mxCell>
        <mxCell id="QqardKdHSsVyAJ3v5-Pz-86" value="" style="group" vertex="1" connectable="0" parent="1">
          <mxGeometry x="1141.75" y="-146.5" width="98" height="168" as="geometry" />
        </mxCell>
        <mxCell id="QqardKdHSsVyAJ3v5-Pz-87" value="" style="rounded=0;whiteSpace=wrap;html=1;" vertex="1" parent="QqardKdHSsVyAJ3v5-Pz-86">
          <mxGeometry x="-17" y="-1" width="36" height="135" as="geometry" />
        </mxCell>
        <mxCell id="QqardKdHSsVyAJ3v5-Pz-88" value="`b_3`" style="text;html=1;align=center;verticalAlign=middle;resizable=0;points=[];autosize=1;strokeColor=none;fillColor=none;" vertex="1" parent="QqardKdHSsVyAJ3v5-Pz-86">
          <mxGeometry x="-22" y="-1" width="46" height="26" as="geometry" />
        </mxCell>
        <mxCell id="QqardKdHSsVyAJ3v5-Pz-89" value="" style="endArrow=classic;html=1;rounded=0;" edge="1" parent="QqardKdHSsVyAJ3v5-Pz-86">
          <mxGeometry width="50" height="50" relative="1" as="geometry">
            <mxPoint x="-7.5" y="11.93" as="sourcePoint" />
            <mxPoint x="-42" y="11.93" as="targetPoint" />
          </mxGeometry>
        </mxCell>
        <mxCell id="QqardKdHSsVyAJ3v5-Pz-90" value="`c_1`" style="text;html=1;align=center;verticalAlign=middle;resizable=0;points=[];autosize=1;strokeColor=none;fillColor=none;" vertex="1" parent="QqardKdHSsVyAJ3v5-Pz-86">
          <mxGeometry x="29" y="46" width="45" height="26" as="geometry" />
        </mxCell>
        <mxCell id="QqardKdHSsVyAJ3v5-Pz-91" value="`b_4`" style="text;html=1;align=center;verticalAlign=middle;resizable=0;points=[];autosize=1;strokeColor=none;fillColor=none;" vertex="1" parent="QqardKdHSsVyAJ3v5-Pz-86">
          <mxGeometry x="-22" y="35" width="46" height="26" as="geometry" />
        </mxCell>
        <mxCell id="QqardKdHSsVyAJ3v5-Pz-92" value="" style="endArrow=classic;html=1;rounded=0;" edge="1" parent="QqardKdHSsVyAJ3v5-Pz-86">
          <mxGeometry width="50" height="50" relative="1" as="geometry">
            <mxPoint x="1" y="41" as="sourcePoint" />
            <mxPoint x="0.7899999999999636" y="19" as="targetPoint" />
          </mxGeometry>
        </mxCell>
        <mxCell id="QqardKdHSsVyAJ3v5-Pz-93" value="`b_7`" style="text;html=1;align=center;verticalAlign=middle;resizable=0;points=[];autosize=1;strokeColor=none;fillColor=none;" vertex="1" parent="QqardKdHSsVyAJ3v5-Pz-86">
          <mxGeometry x="-22" y="74" width="46" height="26" as="geometry" />
        </mxCell>
        <mxCell id="QqardKdHSsVyAJ3v5-Pz-94" value="" style="endArrow=classic;html=1;rounded=0;" edge="1" parent="QqardKdHSsVyAJ3v5-Pz-86">
          <mxGeometry width="50" height="50" relative="1" as="geometry">
            <mxPoint x="1" y="80" as="sourcePoint" />
            <mxPoint x="0.7899999999999636" y="58" as="targetPoint" />
          </mxGeometry>
        </mxCell>
        <mxCell id="QqardKdHSsVyAJ3v5-Pz-95" value="`b_8`" style="text;html=1;align=center;verticalAlign=middle;resizable=0;points=[];autosize=1;strokeColor=none;fillColor=none;" vertex="1" parent="QqardKdHSsVyAJ3v5-Pz-86">
          <mxGeometry x="-22" y="111" width="46" height="26" as="geometry" />
        </mxCell>
        <mxCell id="QqardKdHSsVyAJ3v5-Pz-96" value="" style="endArrow=classic;html=1;rounded=0;" edge="1" parent="QqardKdHSsVyAJ3v5-Pz-86">
          <mxGeometry width="50" height="50" relative="1" as="geometry">
            <mxPoint x="1" y="117" as="sourcePoint" />
            <mxPoint x="0.7899999999999636" y="95" as="targetPoint" />
          </mxGeometry>
        </mxCell>
        <mxCell id="QqardKdHSsVyAJ3v5-Pz-97" value="" style="endArrow=classic;html=1;rounded=0;" edge="1" parent="QqardKdHSsVyAJ3v5-Pz-86">
          <mxGeometry width="50" height="50" relative="1" as="geometry">
            <mxPoint x="-6.5" y="123.94000000000001" as="sourcePoint" />
            <mxPoint x="-41" y="123.94000000000001" as="targetPoint" />
          </mxGeometry>
        </mxCell>
        <mxCell id="QqardKdHSsVyAJ3v5-Pz-98" value="" style="endArrow=classic;html=1;rounded=0;" edge="1" parent="QqardKdHSsVyAJ3v5-Pz-86">
          <mxGeometry width="50" height="50" relative="1" as="geometry">
            <mxPoint x="-7" y="44" as="sourcePoint" />
            <mxPoint x="-42" y="17" as="targetPoint" />
          </mxGeometry>
        </mxCell>
        <mxCell id="QqardKdHSsVyAJ3v5-Pz-99" value="" style="endArrow=classic;html=1;rounded=0;" edge="1" parent="QqardKdHSsVyAJ3v5-Pz-86">
          <mxGeometry width="50" height="50" relative="1" as="geometry">
            <mxPoint x="43" y="60" as="sourcePoint" />
            <mxPoint x="8" y="16.999999999999996" as="targetPoint" />
          </mxGeometry>
        </mxCell>
        <mxCell id="QqardKdHSsVyAJ3v5-Pz-100" value="" style="endArrow=classic;html=1;rounded=0;" edge="1" parent="QqardKdHSsVyAJ3v5-Pz-86">
          <mxGeometry width="50" height="50" relative="1" as="geometry">
            <mxPoint x="42" y="61" as="sourcePoint" />
            <mxPoint x="7" y="50" as="targetPoint" />
          </mxGeometry>
        </mxCell>
        <mxCell id="QqardKdHSsVyAJ3v5-Pz-101" value="" style="endArrow=classic;html=1;rounded=0;" edge="1" parent="QqardKdHSsVyAJ3v5-Pz-86">
          <mxGeometry width="50" height="50" relative="1" as="geometry">
            <mxPoint x="43" y="62" as="sourcePoint" />
            <mxPoint x="8" y="89" as="targetPoint" />
          </mxGeometry>
        </mxCell>
        <mxCell id="QqardKdHSsVyAJ3v5-Pz-102" value="" style="endArrow=classic;html=1;rounded=0;" edge="1" parent="QqardKdHSsVyAJ3v5-Pz-86">
          <mxGeometry width="50" height="50" relative="1" as="geometry">
            <mxPoint x="43" y="64" as="sourcePoint" />
            <mxPoint x="8" y="124" as="targetPoint" />
          </mxGeometry>
        </mxCell>
        <mxCell id="QqardKdHSsVyAJ3v5-Pz-103" value="`a_1`" style="text;html=1;align=center;verticalAlign=middle;resizable=0;points=[];autosize=1;strokeColor=none;fillColor=none;" vertex="1" parent="1">
          <mxGeometry x="1068.75" y="-147.5" width="46" height="26" as="geometry" />
        </mxCell>
        <mxCell id="QqardKdHSsVyAJ3v5-Pz-104" value="`a_2`" style="text;html=1;align=center;verticalAlign=middle;resizable=0;points=[];autosize=1;strokeColor=none;fillColor=none;" vertex="1" parent="1">
          <mxGeometry x="1068.75" y="-111.5" width="46" height="26" as="geometry" />
        </mxCell>
        <mxCell id="QqardKdHSsVyAJ3v5-Pz-105" value="`A[i]`" style="text;html=1;align=center;verticalAlign=middle;resizable=0;points=[];autosize=1;strokeColor=none;fillColor=none;" vertex="1" parent="1">
          <mxGeometry x="1070.25" y="-172.5" width="43" height="26" as="geometry" />
        </mxCell>
        <mxCell id="QqardKdHSsVyAJ3v5-Pz-106" value="`B[i]`" style="text;html=1;align=center;verticalAlign=middle;resizable=0;points=[];autosize=1;strokeColor=none;fillColor=none;" vertex="1" parent="1">
          <mxGeometry x="1122.5" y="-172.5" width="43" height="26" as="geometry" />
        </mxCell>
        <mxCell id="QqardKdHSsVyAJ3v5-Pz-107" value="`C`" style="text;html=1;align=center;verticalAlign=middle;resizable=0;points=[];autosize=1;strokeColor=none;fillColor=none;" vertex="1" parent="1">
          <mxGeometry x="1177" y="-172.5" width="35" height="26" as="geometry" />
        </mxCell>
        <mxCell id="QqardKdHSsVyAJ3v5-Pz-108" value="" style="endArrow=classic;html=1;rounded=0;" edge="1" parent="1">
          <mxGeometry width="50" height="50" relative="1" as="geometry">
            <mxPoint x="1091.75" y="-105.5" as="sourcePoint" />
            <mxPoint x="1091.54" y="-127.5" as="targetPoint" />
          </mxGeometry>
        </mxCell>
        <mxCell id="QqardKdHSsVyAJ3v5-Pz-109" value="" style="rounded=0;whiteSpace=wrap;html=1;strokeColor=none;" vertex="1" parent="1">
          <mxGeometry x="1868.75" y="47" width="148.5" height="60" as="geometry" />
        </mxCell>
        <mxCell id="QqardKdHSsVyAJ3v5-Pz-110" value="" style="rounded=0;whiteSpace=wrap;html=1;strokeColor=none;" vertex="1" parent="1">
          <mxGeometry x="1057" y="1.5" width="174" height="60" as="geometry" />
        </mxCell>
        <mxCell id="QqardKdHSsVyAJ3v5-Pz-111" value="`a_5`" style="text;html=1;align=center;verticalAlign=middle;resizable=0;points=[];autosize=1;strokeColor=none;fillColor=none;" vertex="1" parent="1">
          <mxGeometry x="1068.75" y="-72.5" width="46" height="26" as="geometry" />
        </mxCell>
        <mxCell id="QqardKdHSsVyAJ3v5-Pz-112" value="" style="endArrow=classic;html=1;rounded=0;" edge="1" parent="1">
          <mxGeometry width="50" height="50" relative="1" as="geometry">
            <mxPoint x="1091.75" y="-66.5" as="sourcePoint" />
            <mxPoint x="1091.54" y="-88.5" as="targetPoint" />
          </mxGeometry>
        </mxCell>
        <mxCell id="QqardKdHSsVyAJ3v5-Pz-113" value="`a_6`" style="text;html=1;align=center;verticalAlign=middle;resizable=0;points=[];autosize=1;strokeColor=none;fillColor=none;" vertex="1" parent="1">
          <mxGeometry x="1068.75" y="-35.5" width="46" height="26" as="geometry" />
        </mxCell>
        <mxCell id="QqardKdHSsVyAJ3v5-Pz-114" value="" style="endArrow=classic;html=1;rounded=0;" edge="1" parent="1">
          <mxGeometry width="50" height="50" relative="1" as="geometry">
            <mxPoint x="1091.75" y="-29.5" as="sourcePoint" />
            <mxPoint x="1091.54" y="-51.5" as="targetPoint" />
          </mxGeometry>
        </mxCell>
        <mxCell id="QqardKdHSsVyAJ3v5-Pz-115" value="" style="endArrow=classic;html=1;rounded=0;" edge="1" parent="1">
          <mxGeometry width="50" height="50" relative="1" as="geometry">
            <mxPoint x="1135.25" y="-96.5" as="sourcePoint" />
            <mxPoint x="1100.75" y="-96.5" as="targetPoint" />
          </mxGeometry>
        </mxCell>
        <mxCell id="QqardKdHSsVyAJ3v5-Pz-116" value="" style="endArrow=classic;html=1;rounded=0;" edge="1" parent="1">
          <mxGeometry width="50" height="50" relative="1" as="geometry">
            <mxPoint x="1134.25" y="-56.5" as="sourcePoint" />
            <mxPoint x="1099.75" y="-56.5" as="targetPoint" />
          </mxGeometry>
        </mxCell>
        <mxCell id="QqardKdHSsVyAJ3v5-Pz-117" value="" style="endArrow=classic;html=1;rounded=0;" edge="1" parent="1">
          <mxGeometry width="50" height="50" relative="1" as="geometry">
            <mxPoint x="1134.75" y="-62.5" as="sourcePoint" />
            <mxPoint x="1099.75" y="-129.5" as="targetPoint" />
          </mxGeometry>
        </mxCell>
        <mxCell id="QqardKdHSsVyAJ3v5-Pz-118" value="" style="endArrow=classic;html=1;rounded=0;" edge="1" parent="1">
          <mxGeometry width="50" height="50" relative="1" as="geometry">
            <mxPoint x="1134.75" y="-27.5" as="sourcePoint" />
            <mxPoint x="1099.75" y="-129.5" as="targetPoint" />
          </mxGeometry>
        </mxCell>
        <mxCell id="QqardKdHSsVyAJ3v5-Pz-119" value="" style="endArrow=classic;html=1;rounded=0;" edge="1" parent="1">
          <mxGeometry width="50" height="50" relative="1" as="geometry">
            <mxPoint x="1134.75" y="-62.5" as="sourcePoint" />
            <mxPoint x="1099.75" y="-93" as="targetPoint" />
          </mxGeometry>
        </mxCell>
        <mxCell id="QqardKdHSsVyAJ3v5-Pz-120" value="" style="endArrow=classic;html=1;rounded=0;" edge="1" parent="1">
          <mxGeometry width="50" height="50" relative="1" as="geometry">
            <mxPoint x="1134.75" y="-27.5" as="sourcePoint" />
            <mxPoint x="1099.75" y="-93" as="targetPoint" />
          </mxGeometry>
        </mxCell>
        <mxCell id="QqardKdHSsVyAJ3v5-Pz-121" value="" style="endArrow=classic;html=1;rounded=0;" edge="1" parent="1">
          <mxGeometry width="50" height="50" relative="1" as="geometry">
            <mxPoint x="1133.75" y="-27.5" as="sourcePoint" />
            <mxPoint x="1098.75" y="-52.75" as="targetPoint" />
          </mxGeometry>
        </mxCell>
        <mxCell id="QqardKdHSsVyAJ3v5-Pz-122" value="" style="endArrow=classic;html=1;rounded=0;" edge="1" parent="1">
          <mxGeometry width="50" height="50" relative="1" as="geometry">
            <mxPoint x="1440.25" y="-111.5" as="sourcePoint" />
            <mxPoint x="1517.25" y="-111.5" as="targetPoint" />
          </mxGeometry>
        </mxCell>
        <mxCell id="QqardKdHSsVyAJ3v5-Pz-126" value="&lt;span style=&quot;font-size: 12px;&quot;&gt;修改Kleene模式&lt;/span&gt;&lt;div style=&quot;font-size: 12px;&quot;&gt;的事件选择策略&lt;/div&gt;" style="edgeLabel;html=1;align=center;verticalAlign=middle;resizable=0;points=[];" vertex="1" connectable="0" parent="QqardKdHSsVyAJ3v5-Pz-122">
          <mxGeometry x="-0.3007" y="1" relative="1" as="geometry">
            <mxPoint x="10" y="-19" as="offset" />
          </mxGeometry>
        </mxCell>
        <mxCell id="QqardKdHSsVyAJ3v5-Pz-127" value="" style="group" vertex="1" connectable="0" parent="1">
          <mxGeometry x="1519" y="-81" width="149" height="186" as="geometry" />
        </mxCell>
        <mxCell id="QqardKdHSsVyAJ3v5-Pz-1" value="" style="rounded=0;whiteSpace=wrap;html=1;" vertex="1" parent="QqardKdHSsVyAJ3v5-Pz-127">
          <mxGeometry x="107" y="25" width="36" height="135" as="geometry" />
        </mxCell>
        <mxCell id="QqardKdHSsVyAJ3v5-Pz-2" value="" style="rounded=0;whiteSpace=wrap;html=1;fillColor=none;" vertex="1" parent="QqardKdHSsVyAJ3v5-Pz-127">
          <mxGeometry x="4.5" y="25" width="36" height="135" as="geometry" />
        </mxCell>
        <mxCell id="QqardKdHSsVyAJ3v5-Pz-3" value="" style="group" vertex="1" connectable="0" parent="QqardKdHSsVyAJ3v5-Pz-127">
          <mxGeometry x="73" y="26" width="76" height="160" as="geometry" />
        </mxCell>
        <mxCell id="QqardKdHSsVyAJ3v5-Pz-4" value="" style="rounded=0;whiteSpace=wrap;html=1;" vertex="1" parent="QqardKdHSsVyAJ3v5-Pz-3">
          <mxGeometry x="-17" y="-1" width="36" height="135" as="geometry" />
        </mxCell>
        <mxCell id="QqardKdHSsVyAJ3v5-Pz-5" value="`b_1`" style="text;html=1;align=center;verticalAlign=middle;resizable=0;points=[];autosize=1;strokeColor=none;fillColor=none;" vertex="1" parent="QqardKdHSsVyAJ3v5-Pz-3">
          <mxGeometry x="-22" y="-1" width="46" height="26" as="geometry" />
        </mxCell>
        <mxCell id="QqardKdHSsVyAJ3v5-Pz-6" value="`b_2`" style="text;html=1;align=center;verticalAlign=middle;resizable=0;points=[];autosize=1;strokeColor=none;fillColor=none;" vertex="1" parent="QqardKdHSsVyAJ3v5-Pz-3">
          <mxGeometry x="-21.25" y="25" width="46" height="26" as="geometry" />
        </mxCell>
        <mxCell id="QqardKdHSsVyAJ3v5-Pz-7" value="`b_3`" style="text;html=1;align=center;verticalAlign=middle;resizable=0;points=[];autosize=1;strokeColor=none;fillColor=none;" vertex="1" parent="QqardKdHSsVyAJ3v5-Pz-3">
          <mxGeometry x="-21.25" y="56" width="46" height="26" as="geometry" />
        </mxCell>
        <mxCell id="QqardKdHSsVyAJ3v5-Pz-8" value="" style="endArrow=classic;html=1;rounded=0;" edge="1" parent="QqardKdHSsVyAJ3v5-Pz-3">
          <mxGeometry width="50" height="50" relative="1" as="geometry">
            <mxPoint x="-6" y="33" as="sourcePoint" />
            <mxPoint x="-6" y="15" as="targetPoint" />
          </mxGeometry>
        </mxCell>
        <mxCell id="QqardKdHSsVyAJ3v5-Pz-9" value="" style="endArrow=classic;html=1;rounded=0;" edge="1" parent="QqardKdHSsVyAJ3v5-Pz-3">
          <mxGeometry width="50" height="50" relative="1" as="geometry">
            <mxPoint x="-5" y="63" as="sourcePoint" />
            <mxPoint x="-5" y="45" as="targetPoint" />
          </mxGeometry>
        </mxCell>
        <mxCell id="QqardKdHSsVyAJ3v5-Pz-10" value="" style="endArrow=classic;html=1;rounded=0;" edge="1" parent="QqardKdHSsVyAJ3v5-Pz-3">
          <mxGeometry width="50" height="50" relative="1" as="geometry">
            <mxPoint x="-7.5" y="11.93" as="sourcePoint" />
            <mxPoint x="-42" y="11.93" as="targetPoint" />
          </mxGeometry>
        </mxCell>
        <mxCell id="QqardKdHSsVyAJ3v5-Pz-11" value="" style="rounded=0;whiteSpace=wrap;html=1;strokeColor=none;" vertex="1" parent="QqardKdHSsVyAJ3v5-Pz-3">
          <mxGeometry x="-72.5" y="78" width="148.5" height="60" as="geometry" />
        </mxCell>
        <mxCell id="QqardKdHSsVyAJ3v5-Pz-12" value="`c_1`" style="text;html=1;align=center;verticalAlign=middle;resizable=0;points=[];autosize=1;strokeColor=none;fillColor=none;" vertex="1" parent="QqardKdHSsVyAJ3v5-Pz-127">
          <mxGeometry x="103" y="25" width="45" height="26" as="geometry" />
        </mxCell>
        <mxCell id="QqardKdHSsVyAJ3v5-Pz-13" value="`a_1`" style="text;html=1;align=center;verticalAlign=middle;resizable=0;points=[];autosize=1;strokeColor=none;fillColor=none;" vertex="1" parent="QqardKdHSsVyAJ3v5-Pz-127">
          <mxGeometry y="25" width="46" height="26" as="geometry" />
        </mxCell>
        <mxCell id="QqardKdHSsVyAJ3v5-Pz-14" value="" style="endArrow=classic;html=1;rounded=0;" edge="1" parent="QqardKdHSsVyAJ3v5-Pz-127">
          <mxGeometry width="50" height="50" relative="1" as="geometry">
            <mxPoint x="121.5" y="51" as="sourcePoint" />
            <mxPoint x="82.5" y="94" as="targetPoint" />
          </mxGeometry>
        </mxCell>
        <mxCell id="QqardKdHSsVyAJ3v5-Pz-15" value="`a_2`" style="text;html=1;align=center;verticalAlign=middle;resizable=0;points=[];autosize=1;strokeColor=none;fillColor=none;" vertex="1" parent="QqardKdHSsVyAJ3v5-Pz-127">
          <mxGeometry y="79" width="46" height="26" as="geometry" />
        </mxCell>
        <mxCell id="QqardKdHSsVyAJ3v5-Pz-16" value="" style="endArrow=classic;html=1;rounded=0;" edge="1" parent="QqardKdHSsVyAJ3v5-Pz-127">
          <mxGeometry width="50" height="50" relative="1" as="geometry">
            <mxPoint x="66" y="94.44999999999999" as="sourcePoint" />
            <mxPoint x="31.5" y="94.44999999999999" as="targetPoint" />
          </mxGeometry>
        </mxCell>
        <mxCell id="QqardKdHSsVyAJ3v5-Pz-17" value="`A[i]`" style="text;html=1;align=center;verticalAlign=middle;resizable=0;points=[];autosize=1;strokeColor=none;fillColor=none;" vertex="1" parent="QqardKdHSsVyAJ3v5-Pz-127">
          <mxGeometry x="1.5" width="43" height="26" as="geometry" />
        </mxCell>
        <mxCell id="QqardKdHSsVyAJ3v5-Pz-18" value="`B[i]`" style="text;html=1;align=center;verticalAlign=middle;resizable=0;points=[];autosize=1;strokeColor=none;fillColor=none;" vertex="1" parent="QqardKdHSsVyAJ3v5-Pz-127">
          <mxGeometry x="53.75" width="43" height="26" as="geometry" />
        </mxCell>
        <mxCell id="QqardKdHSsVyAJ3v5-Pz-19" value="`C`" style="text;html=1;align=center;verticalAlign=middle;resizable=0;points=[];autosize=1;strokeColor=none;fillColor=none;" vertex="1" parent="QqardKdHSsVyAJ3v5-Pz-127">
          <mxGeometry x="108.25" width="35" height="26" as="geometry" />
        </mxCell>
        <mxCell id="QqardKdHSsVyAJ3v5-Pz-83" value="" style="endArrow=classic;html=1;rounded=0;" edge="1" parent="QqardKdHSsVyAJ3v5-Pz-127">
          <mxGeometry width="50" height="50" relative="1" as="geometry">
            <mxPoint x="22.789999999999964" y="86" as="sourcePoint" />
            <mxPoint x="22.789999999999964" y="45" as="targetPoint" />
          </mxGeometry>
        </mxCell>
        <mxCell id="QqardKdHSsVyAJ3v5-Pz-128" value="" style="endArrow=classic;html=1;rounded=0;" edge="1" parent="1">
          <mxGeometry width="50" height="50" relative="1" as="geometry">
            <mxPoint x="1442" y="-12.5" as="sourcePoint" />
            <mxPoint x="1519" y="-12.5" as="targetPoint" />
          </mxGeometry>
        </mxCell>
        <mxCell id="QqardKdHSsVyAJ3v5-Pz-129" value="&lt;span style=&quot;font-size: 12px;&quot;&gt;添加&lt;/span&gt;&lt;div&gt;&lt;span style=&quot;font-size: 12px;&quot;&gt;Kleene Dead&lt;/span&gt;&lt;/div&gt;&lt;div&gt;&lt;span style=&quot;font-size: 12px;&quot;&gt;状态&lt;/span&gt;&lt;/div&gt;" style="edgeLabel;html=1;align=center;verticalAlign=middle;resizable=0;points=[];" vertex="1" connectable="0" parent="QqardKdHSsVyAJ3v5-Pz-128">
          <mxGeometry x="-0.3007" y="1" relative="1" as="geometry">
            <mxPoint x="10" y="-25" as="offset" />
          </mxGeometry>
        </mxCell>
      </root>
    </mxGraphModel>
  </diagram>
</mxfile>
